<svg width="5" height="7" viewBox="0 0 5 7" fill="none" xmlns="http://www.w3.org/2000/svg">
<path d="M1.16815 6.02384V3.13525L0.0397331 3.41338V2.58693L1.16815 2.3088V1.94325L0.0397331 2.22138V1.39494L1.16815 1.11681V0.175132H2.34425V0.822781L3.47267 0.540676V1.36712L2.34425 1.64923V2.01477L3.47267 1.73267V2.55912L2.34425 2.84122V4.97091C2.54557 4.93118 2.72569 4.85834 2.88462 4.75238C3.0462 4.64643 3.18262 4.51531 3.29387 4.35902C3.40512 4.20009 3.48989 4.01997 3.54816 3.81865C3.60644 3.61734 3.63558 3.40278 3.63558 3.17498H4.80373C4.80373 3.61999 4.72956 4.01997 4.58122 4.37492C4.43554 4.72987 4.2276 5.03184 3.95741 5.28083C3.68988 5.52718 3.36539 5.71657 2.98395 5.84901C2.60252 5.98146 2.17737 6.04768 1.70852 6.04768C1.61581 6.04768 1.5231 6.04636 1.43039 6.04371C1.34033 6.04371 1.25292 6.03708 1.16815 6.02384Z" fill="white"/>
</svg>
