<svg width="6" height="7" viewBox="0 0 6 7" fill="none" xmlns="http://www.w3.org/2000/svg">
<path d="M5.31165 0.45578L5.05525 1.65954C4.80899 1.41328 4.44975 1.29016 3.97751 1.29016C3.50528 1.29016 3.12286 1.45964 2.83025 1.7986C2.66511 1.98981 2.54778 2.22883 2.47825 2.51564H4.86838L4.72932 3.18923H2.39133C2.38844 3.25586 2.38699 3.34133 2.38699 3.44562C2.38699 3.54702 2.38988 3.65277 2.39568 3.76286H4.60764L4.46858 4.43644H2.48694C2.55937 4.74644 2.67091 4.9898 2.82156 5.16652C3.11127 5.50838 3.4879 5.67932 3.95144 5.67932C4.50769 5.67932 4.95095 5.50838 5.28123 5.16652V6.49631C4.9046 6.68462 4.46568 6.77878 3.96448 6.77878C3.11851 6.77878 2.4232 6.48906 1.87854 5.90964C1.50771 5.51563 1.2629 5.02456 1.14412 4.43644H0.500952L0.640015 3.76286H1.06589C1.063 3.69333 1.06155 3.61945 1.06155 3.54123C1.06155 3.40796 1.06444 3.29063 1.07024 3.18923H0.500952L0.640015 2.51564H1.15715C1.27883 1.93911 1.52074 1.45674 1.88289 1.06852C2.43044 0.483303 3.15038 0.190692 4.0427 0.190692C4.52942 0.190692 4.9524 0.279055 5.31165 0.45578Z" fill="white"/>
</svg>
