<svg width="5" height="8" viewBox="0 0 5 8" fill="none" xmlns="http://www.w3.org/2000/svg">
<path d="M2.10075 5.60895V3.99788C1.59833 3.85433 1.22921 3.63772 0.993375 3.34806C0.760109 3.05584 0.643476 2.70209 0.643476 2.28683C0.643476 1.86644 0.775489 1.51397 1.03952 1.22944C1.30611 0.942341 1.65985 0.777004 2.10075 0.733427V0.352767H2.65828V0.733427C3.06586 0.782131 3.39012 0.921834 3.63108 1.15254C3.87204 1.38068 4.02584 1.687 4.09249 2.0715L3.11969 2.19839C3.06073 1.89591 2.90693 1.69084 2.65828 1.58318V3.0866C3.27349 3.25322 3.6926 3.46982 3.91561 3.73641C4.13863 4.00044 4.25013 4.34009 4.25013 4.75535C4.25013 5.21932 4.10915 5.61023 3.82718 5.92809C3.54777 6.24595 3.15814 6.44077 2.65828 6.51254V7.23156H2.10075V6.53177C1.65729 6.47793 1.29713 6.3126 1.02029 6.03575C0.743447 5.75891 0.566575 5.368 0.489674 4.86301L1.49323 4.75535C1.53425 4.96042 1.61115 5.13729 1.72394 5.28597C1.83672 5.43464 1.96233 5.54231 2.10075 5.60895ZM2.10075 1.57165C1.94951 1.62292 1.82903 1.71007 1.73932 1.83311C1.6496 1.95615 1.60474 2.09201 1.60474 2.24069C1.60474 2.37655 1.64575 2.50343 1.72778 2.62135C1.80981 2.7367 1.93413 2.83026 2.10075 2.90204V1.57165ZM2.65828 5.66278C2.85054 5.6269 3.0069 5.53846 3.12738 5.39747C3.24786 5.25393 3.3081 5.08603 3.3081 4.89377C3.3081 4.72203 3.25683 4.57463 3.15429 4.45159C3.05432 4.32599 2.88899 4.22986 2.65828 4.16321V5.66278Z" fill="white"/>
</svg>
