<svg width="33" height="32" viewBox="0 0 33 32" fill="none" xmlns="http://www.w3.org/2000/svg">
<g id="Print" clip-path="url(#clip0_7_120)">
<path id="Vector" d="M26.125 10.6667H6.875C4.5925 10.6667 2.75 12.4533 2.75 14.6667V22.6667H8.25V28H24.75V22.6667H30.25V14.6667C30.25 12.4533 28.4075 10.6667 26.125 10.6667ZM22 25.3333H11V18.6667H22V25.3333ZM26.125 16C25.3687 16 24.75 15.4 24.75 14.6667C24.75 13.9333 25.3687 13.3333 26.125 13.3333C26.8813 13.3333 27.5 13.9333 27.5 14.6667C27.5 15.4 26.8813 16 26.125 16ZM24.75 4H8.25V9.33333H24.75V4Z" fill="#434343"/>
</g>
<defs>
<clipPath id="clip0_7_120">
<rect width="33" height="32" fill="white"/>
</clipPath>
</defs>
</svg>
