<svg width="6" height="7" viewBox="0 0 6 7" fill="none" xmlns="http://www.w3.org/2000/svg">
<path d="M1.84814 6.27784V3.38924L0.719726 3.66737V2.84093L1.84814 2.5628V2.19725L0.719726 2.47538V1.64893L1.84814 1.3708V0.42913H3.02424V1.07678L4.15266 0.794674V1.62112L3.02424 1.90323V2.26877L4.15266 1.98667V2.81311L3.02424 3.09522V5.22491C3.22556 5.18518 3.40568 5.11233 3.56461 5.00638C3.72619 4.90042 3.86261 4.76931 3.97386 4.61302C4.08512 4.45409 4.16988 4.27397 4.22816 4.07265C4.28643 3.87134 4.31557 3.65678 4.31557 3.42898H5.48372C5.48372 3.87399 5.40955 4.27397 5.26122 4.62892C5.11553 4.98386 4.90759 5.28584 4.63741 5.53483C4.36987 5.78117 4.04538 5.97057 3.66395 6.10301C3.28251 6.23546 2.85736 6.30168 2.38851 6.30168C2.2958 6.30168 2.20309 6.30035 2.11038 6.2977C2.02032 6.2977 1.93291 6.29108 1.84814 6.27784Z" fill="white"/>
</svg>
